<svg xmlns="http://www.w3.org/2000/svg" width="19" height="16">
  <path
    d="M18.9 14.648a5.913 5.913 0 00-5.906-5.907 5.81 5.81 0 00-1.872.31.394.394 0 00-.158.648 7.05 7.05 0 012.03 4.949v.018a.367.367 0 00.369.375h5.143a.393.393 0 00.394-.393zM10.77 2.465c.104.323.177.656.219.993a.392.392 0 00.557.31 4.654 4.654 0 001.399-1 .193.193 0 01.142-.061c.054 0 .106.021.143.06a4.637 4.637 0 001.944 1.215.394.394 0 01.269.434 2.402 2.402 0 01-2.37 2.036c-.657 0-1.284-.27-1.733-.748a.396.396 0 00-.363-.116.396.396 0 00-.29.246c-.092.24-.202.472-.329.695a.392.392 0 00.079.488 3.924 3.924 0 005.118.118.196.196 0 01.308.078c.1.266.228.52.38.76a.787.787 0 101.323-.854 3.735 3.735 0 01-.526-2.054V4.052a3.965 3.965 0 00-6.588-2.982.394.394 0 00-.078.492c.164.286.296.589.395.903zm-.926 1.551a3.937 3.937 0 10-3.937 3.938 3.943 3.943 0 003.937-3.938zm-6.221-.585a.393.393 0 01.583-.236 5.48 5.48 0 002.85.821c.245 0 .49-.019.732-.055a.393.393 0 01.448.444 2.362 2.362 0 01-4.692-.389c0-.197.027-.394.079-.585zm8.19 11.217a5.907 5.907 0 00-11.813 0c0 .217.176.393.394.393h11.025a.393.393 0 00.393-.393z"
    fill="#ff41ae" fill-rule="nonzero" /></svg>
