<svg xmlns="http://www.w3.org/2000/svg" width="35" height="35">
  <g fill="#66788A" fill-rule="evenodd">
    <circle cx="17.4" cy="17.4" r="17.4" fill-opacity=".1" />
    <g fill-rule="nonzero">
      <path
        d="M22.896 16.548a.605.605 0 00-.605.605v5.14c0 .335-.27.605-.605.605h-9.072a.603.603 0 01-.604-.604V12.012c0-.334.27-.605.604-.605h6.048a.605.605 0 100-1.209h-6.048a1.814 1.814 0 00-1.814 1.814v10.282c0 1.002.812 1.814 1.814 1.814h9.072a1.815 1.815 0 001.815-1.814v-5.141a.605.605 0 00-.605-.605zm2.065-6.598a1.238 1.238 0 00-1.71 0l-.642.641a.303.303 0 000 .428l1.283 1.283c.118.118.31.118.428 0l.641-.642a1.208 1.208 0 000-1.71z" />
      <path
        d="M17.67 15.959l1.283 1.283c.118.118.31.118.427 0l3.85-3.85a.302.302 0 00-.001-.427l-1.283-1.285a.313.313 0 00-.428 0l-3.848 3.851a.303.303 0 000 .428zm-.61.436a.304.304 0 00-.221.181l-.733 1.836a.303.303 0 00.067.326.32.32 0 00.326.067l1.833-.733a.301.301 0 00.101-.495l-1.101-1.1a.306.306 0 00-.273-.082z" />
    </g>
  </g>
</svg>