<svg xmlns="http://www.w3.org/2000/svg" width="22" height="22">
  <g fill="#ff41ae" fill-rule="nonzero">
    <path
      d="M5.95 16.192L3.6 17.284l1.07-2.138a.903.903 0 00-.241-1.106 6.496 6.496 0 01-2.63-5.065c0-3.956 4.038-7.175 9-7.175 4.536 0 8.376 2.708 8.93 6.293.06.382.081.77.064 1.157a.901.901 0 101.799.083 7.633 7.633 0 00-.083-1.518C20.819 3.361 16.215 0 10.799 0 4.844 0 0 4.027 0 8.975a8.11 8.11 0 002.751 5.992l-1.913 3.82a.897.897 0 00.16 1.03.905.905 0 001.024.188l4.688-2.182a.903.903 0 10-.76-1.631z" />
    <path
      d="M15.984 6.043a.662.662 0 00-.674-.643H5.86a.662.662 0 00-.676.648c0 .358.302.648.675.648h9.45c.18 0 .353-.069.48-.191a.634.634 0 00.195-.462zM5.864 9.504a.689.689 0 00-.589.324.624.624 0 000 .648.69.69 0 00.59.324H9.04c.375 0 .68-.29.68-.648 0-.358-.305-.648-.68-.648H5.864zm14.512 8.498a4.793 4.793 0 001.224-3.154c0-2.947-2.858-5.344-6.371-5.344-3.513 0-6.373 2.397-6.373 5.344 0 2.947 2.855 5.345 6.372 5.345a7.4 7.4 0 001.618-.185l3.003 1.498a.9.9 0 001.263-1.059l-.736-2.445zm-1.873.014l.289.958-1.433-.714a.906.906 0 00-.639-.062c-3.146.85-6.066-1.012-6.066-3.347 0-1.959 2.051-3.553 4.574-3.553 2.523 0 4.574 1.591 4.574 3.55a3.108 3.108 0 01-1.054 2.255.898.898 0 00-.245.91v.003z" />
  </g>
</svg>
