<svg xmlns="http://www.w3.org/2000/svg" width="18" height="18">
  <path
    d="M15.613 2.25h-2.045a.187.187 0 01-.185-.188V.75a.747.747 0 00-.744-.75.747.747 0 00-.743.75v3.563a.56.56 0 01-.558.562.56.56 0 01-.558-.563V2.625a.373.373 0 00-.371-.375H5.762a.187.187 0 01-.186-.187V.75A.747.747 0 004.833 0a.747.747 0 00-.744.75v3.563a.56.56 0 01-.557.562.56.56 0 01-.558-.563V2.625a.374.374 0 00-.372-.375H1.487C.666 2.25 0 2.922 0 3.75V16.5c0 .828.666 1.5 1.487 1.5h14.126c.821 0 1.487-.672 1.487-1.5V3.75c0-.828-.666-1.5-1.487-1.5zm-.372 14.25H1.86a.373.373 0 01-.372-.375v-9c0-.207.166-.375.372-.375h13.38c.206 0 .372.168.372.375v9a.373.373 0 01-.372.375z"
    fill="#4F121C" fill-rule="nonzero" /></svg>