<svg xmlns="http://www.w3.org/2000/svg" width="24" height="21">
  <path
    d="M23.175 4h-9.35C13.369 4 13 3.328 13 2.5s.37-1.5.825-1.5h9.35c.456 0 .825.672.825 1.5S23.63 4 23.175 4zm0 8h-9.35c-.456 0-.825-.672-.825-1.5s.37-1.5.825-1.5h9.35c.456 0 .825.672.825 1.5s-.37 1.5-.825 1.5zm0 8h-9.35c-.456 0-.825-.672-.825-1.5s.37-1.5.825-1.5h9.35c.456 0 .825.672.825 1.5s-.37 1.5-.825 1.5zm-13-16H.825C.369 4 0 3.328 0 2.5S.37 1 .825 1h9.35c.456 0 .825.672.825 1.5S10.63 4 10.175 4zm0 8H.825C.369 12 0 11.328 0 10.5S.37 9 .825 9h9.35c.456 0 .825.672.825 1.5s-.37 1.5-.825 1.5zm0 8H.825C.369 20 0 19.328 0 18.5S.37 17 .825 17h9.35c.456 0 .825.672.825 1.5s-.37 1.5-.825 1.5z"
    fill="#ff41ae" fill-rule="nonzero" /></svg>
