<?xml version="1.0" encoding="UTF-8"?>
<svg width="64px" height="63px" viewBox="0 0 64 63" version="1.1" xmlns="http://www.w3.org/2000/svg" xmlns:xlink="http://www.w3.org/1999/xlink">
    <title>E417328C-6EF8-4BC8-BF97-E59542B96C25</title>
    <g id="accès-entreprise" stroke="none" stroke-width="1" fill="none" fill-rule="evenodd">
        <g id="Ent---mon-coffre-fort" transform="translate(-310.000000, -292.000000)" fill="#ff41ae" fill-rule="nonzero">
            <g id="Mask-Copy" transform="translate(0.000000, -8.000000)">
                <g id="bloc" transform="translate(201.000000, 153.000000)">
                    <g transform="translate(23.000000, 104.000000)" id="forme">
                        <g id="icon-documents" transform="translate(86.000000, 43.000000)">
                            <path d="M27.141,51.940875 C26.9336195,51.729438 26.8998618,51.4027502 27.059625,51.153375 C31.0328701,44.9318848 29.6854689,36.7168666 23.933002,32.0905569 C18.1805351,27.4642471 9.86770591,27.9102127 4.64321505,33.1254128 C-0.581275814,38.340613 -1.04203657,46.6526352 3.5740271,52.4133273 C8.19009077,58.1740194 16.4026977,59.5360403 22.63125,55.573875 C22.8797887,55.4124159 23.207105,55.4451476 23.41875,55.652625 L29.994375,62.230875 C31.0193465,63.2565713 32.6817411,63.2571589 33.7074374,62.2321874 C34.7331337,61.207216 34.7337214,59.5448213 33.70875,58.519125 L27.141,51.940875 Z M14.8875,52.586625 C11.1715031,52.586625 7.82140723,50.3481625 6.3993568,46.915029 C4.97730636,43.4818956 5.76334986,39.530188 8.39095645,36.9025814 C11.018563,34.2749749 14.9702706,33.4889314 18.403404,34.9109818 C21.8365375,36.3330322 24.075,39.6831281 24.075,43.399125 C24.075,48.4732411 19.9616161,52.586625 14.8875,52.586625 L14.8875,52.586625 Z" id="Shape"></path>
                            <path d="M52.95,19.6875 C52.95,18.2377525 51.7747475,17.0625 50.325,17.0625 L31.95,17.0625 C30.5002525,17.0625 29.325,18.2377525 29.325,19.6875 C29.325,21.1372475 30.5002525,22.3125 31.95,22.3125 L50.325,22.3125 C51.7747475,22.3125 52.95,21.1372475 52.95,19.6875 Z" id="Path"></path>
                            <path d="M33.2625,28.875 C31.8127525,28.875 30.6375,30.0502525 30.6375,31.5 C30.6375,32.9497475 31.8127525,34.125 33.2625,34.125 L43.7625,34.125 C45.2122475,34.125 46.3875,32.9497475 46.3875,31.5 C46.3875,30.0502525 45.2122475,28.875 43.7625,28.875 L33.2625,28.875 Z" id="Path"></path>
                            <path d="M61.91175,7.875 L55.575,1.535625 C54.5902335,0.551953358 53.2551461,-2.15951097e-07 51.86325,-2.15951097e-07 L21.45,-2.15951097e-07 C18.5505051,-2.15951097e-07 16.2,2.35050506 16.2,5.25 L16.2,24.4125 C16.201481,24.7423226 16.4541577,25.0166249 16.78275,25.045125 C18.0797245,25.1767245 19.3585868,25.4486918 20.596875,25.85625 C20.791075,25.9258807 21.0069602,25.8972887 21.1763389,25.7795053 C21.3457177,25.661722 21.4476729,25.4692927 21.45,25.263 L21.45,6.5625 C21.45,5.83762627 22.0376263,5.25 22.7625,5.25 L51.319875,5.25 C51.6673002,5.25007381 52.000523,5.387894 52.2465,5.63325 L57.814125,11.2035 C58.0604437,11.4490477 58.1992299,11.7823234 58.2,12.130125 L58.2,47.25 C58.2,47.9748737 57.6123737,48.5625 56.8875,48.5625 L32.937,48.5625 C32.6564736,48.5634987 32.4089592,48.7462132 32.325375,49.014 C32.0577802,49.8522891 31.7314728,50.6706892 31.348875,51.463125 C31.212016,51.8075664 31.2668868,52.1986459 31.49325,52.492125 L32.46975,53.468625 C32.6340473,53.6810105 32.8863772,53.806692 33.154875,53.809875 L58.2,53.809875 C61.0994949,53.809875 63.4500002,51.4593699 63.4500002,48.559875 L63.4500002,11.589375 C63.4500002,10.1961926 62.8970276,8.85997994 61.91175,7.875 Z" id="Path"></path>
                        </g>
                    </g>
                </g>
            </g>
        </g>
    </g>
</svg>
