<svg xmlns="http://www.w3.org/2000/svg" width="21" height="21">
  <g fill="#66788A" fill-rule="nonzero">
    <path
      d="M7.558 10.816a.21.21 0 00.035-.251 2.805 2.805 0 010-2.709.206.206 0 00-.035-.25L6.253 6.303a.21.21 0 00-.319.028 5.017 5.017 0 000 5.76.21.21 0 00.154.089.214.214 0 00.167-.06l1.303-1.305zM8.5 9.212a1.55 1.55 0 103.101-.001 1.55 1.55 0 00-3.101.001zM8.446 6.72a.208.208 0 00.251.036 2.8 2.8 0 012.709 0 .208.208 0 00.25-.035l1.305-1.305a.213.213 0 00.06-.166.205.205 0 00-.088-.153 5.013 5.013 0 00-5.76 0 .208.208 0 00-.088.153.213.213 0 00.06.166l1.3 1.305zm4.095.89a.206.206 0 00-.035.25 2.8 2.8 0 01-.01 2.725.186.186 0 00.03.22l1.32 1.318a.206.206 0 00.167.06.21.21 0 00.153-.087 5.018 5.018 0 000-5.761.205.205 0 00-.153-.084.21.21 0 00-.168.06L12.541 7.61zm-.888 4.094a.212.212 0 00-.252-.036 2.794 2.794 0 01-2.706 0 .21.21 0 00-.252.036l-1.301 1.304a.21.21 0 00.028.321 5.015 5.015 0 005.759 0 .207.207 0 00.084-.153.21.21 0 00-.06-.168l-1.3-1.304z" />
    <path
      d="M18.006 0H2.094A2.058 2.058 0 000 2.017v14.39a2.008 2.008 0 001.14 1.795.21.21 0 01.116.188v.872a.838.838 0 001.675 0v-.628a.21.21 0 01.21-.21h13.818a.21.21 0 01.21.21v.628a.837.837 0 101.674 0v-.872a.21.21 0 01.117-.188 2.013 2.013 0 001.14-1.795V2.017A2.06 2.06 0 0018.005 0zm-1.257 9.212a6.7 6.7 0 11-6.7-6.7 6.707 6.707 0 016.7 6.7z" />
  </g>
</svg>