<svg xmlns="http://www.w3.org/2000/svg" width="18" height="18">
  <path
    d="M.219.224A.778.778 0 000 .766v8.436c0 .423.335.766.748.766h5.98a.757.757 0 00.748-.766V.777a.757.757 0 00-.748-.766L.748 0a.736.736 0 00-.529.224zM16.696 0l-5.98.01c-.413 0-.748.35-.748.783V4.7c0 .431.335.781.748.781h5.98c.413 0 .748-.35.748-.781V.78c0-.431-.335-.781-.748-.781zM7.257 17.215a.804.804 0 00.219-.554v-3.916c0-.433-.335-.783-.748-.783H.748c-.413 0-.748.35-.748.783v3.905c0 .432.335.783.748.783l5.98.011a.73.73 0 00.529-.229zm9.439-9.739h-5.98a.757.757 0 00-.748.767v8.434c0 .424.335.767.748.767l5.98-.01a.758.758 0 00.748-.768V8.243a.757.757 0 00-.748-.767z"
    fill="#66788A" fill-rule="nonzero" /></svg>