<svg xmlns="http://www.w3.org/2000/svg" width="21" height="22">
  <g fill="#66788A" fill-rule="nonzero">
    <path
      d="M16.983 16.321a3.543 3.543 0 01-3.458-4.278 3.6 3.6 0 013.56-2.792h2.256a.47.47 0 00.471-.471V6.655a2.356 2.356 0 00-2.356-2.356c-4.22 0 8.353-.01-13.197-.01a.707.707 0 110-1.414h12.49c.13 0 .235-.105.235-.234v-.224c0-1.3-1.48-2.356-3.299-2.356H3.316a3.3 3.3 0 00-3.3 3.299v14.61a3.3 3.3 0 003.3 3.3h14.14a2.356 2.356 0 002.356-2.357v-2.356a.236.236 0 00-.235-.236h-2.594z" />
    <path
      d="M19.811 10.665h-2.828a2.12 2.12 0 000 4.242h2.828a1.42 1.42 0 001.179-1.414V12.08a1.421 1.421 0 00-1.179-1.414z" />
  </g>
</svg>