<svg xmlns="http://www.w3.org/2000/svg" width="22" height="22">
  <path
    d="M21.101 3.517A2.637 2.637 0 0018.463.879h-.68a.438.438 0 01-.38-.22A1.316 1.316 0 0016.264 0H3.297a.22.22 0 00-.22.22v20.66c0 .122.099.22.22.22h12.968c.47 0 .904-.252 1.137-.66a.443.443 0 01.38-.22h.681a2.637 2.637 0 002.638-2.637V3.517zm-5.557 12.739a.442.442 0 01-.338.158H5.539a.436.436 0 01-.338-.16.435.435 0 01-.094-.36c.08-.452.225-.89.432-1.3.398-.77 1.399-1.244 3.224-1.9a.874.874 0 00-.005-.623 4.378 4.378 0 01-.994-3.086 2.536 2.536 0 012.611-2.682 2.531 2.531 0 012.61 2.684 4.396 4.396 0 01-1.01 3.107.861.861 0 00.024.616c1.813.648 2.813 1.12 3.21 1.892.208.409.354.846.434 1.298a.443.443 0 01-.1.356zm3.799-6.804c0 .12-.099.22-.22.22h-1.319c-.121 0-.22-.1-.22-.22V7.253c0-.12.099-.22.22-.22h1.319c.121 0 .22.1.22.22v2.199zm-1.759 2.198a.22.22 0 01.22-.22h1.319a.22.22 0 01.22.22v2.198a.22.22 0 01-.22.22h-1.319a.22.22 0 01-.22-.22V11.65zm.88-9.012c.485 0 .879.393.879.879v1.538a.22.22 0 01-.22.22h-1.319a.22.22 0 01-.22-.22V2.857a.22.22 0 01.22-.22h.66zm.879 14.946a.88.88 0 01-.88.88h-.659a.22.22 0 01-.22-.22v-2.198a.22.22 0 01.22-.22h1.319a.22.22 0 01.22.22v1.538zM1.978 0h-.66C.59 0 0 .59 0 1.319v18.463c0 .729.59 1.32 1.319 1.32h.66c.12 0 .219-.1.219-.22V.22a.22.22 0 00-.22-.22z"
    fill="#66788A" fill-rule="nonzero" /></svg>