<svg xmlns="http://www.w3.org/2000/svg" width="23" height="23">
  <g fill="#66788A" fill-rule="nonzero">
    <path
      d="M19.206 2.887h-.535V1.49c0-.768-.606-1.374-1.374-1.374-.768 0-1.373.606-1.373 1.374v1.397h-3.376V1.49c0-.768-.605-1.374-1.374-1.374-.768 0-1.373.606-1.373 1.374v1.397H6.425V1.49C6.425.722 5.82.116 5.052.116S3.678.722 3.678 1.49v1.397h-.535A3.01 3.01 0 00.14 5.89v13.34a3.01 3.01 0 003.003 3.002h16.063a3.01 3.01 0 003.003-3.003V5.89a3.01 3.01 0 00-3.003-3.002zm0 17.343H3.143a.993.993 0 01-1.001-1V9.055h18.065v10.173a.993.993 0 01-1.001 1.001z" />
    <path
      d="M7.38 11.058H4.61a.408.408 0 00-.396.396v1.769c0 .21.186.396.395.396h2.77c.21 0 .397-.186.397-.396v-1.77a.408.408 0 00-.396-.395zm5.191 0H9.778a.408.408 0 00-.396.396v1.769c0 .21.186.396.396.396h2.793c.21 0 .396-.186.396-.396v-1.77a.408.408 0 00-.396-.395zm5.192 0h-2.794a.408.408 0 00-.396.396v1.769c0 .21.187.396.396.396h2.77c.21 0 .396-.186.396-.396v-1.77c.023-.209-.163-.395-.372-.395zM7.38 15.644H4.61a.408.408 0 00-.396.396v1.77c0 .209.186.395.395.395h2.77c.21 0 .397-.186.397-.396v-1.77a.408.408 0 00-.396-.395zm5.191 0H9.778a.408.408 0 00-.396.396v1.77c0 .209.186.395.396.395h2.793c.21 0 .396-.186.396-.396v-1.77a.408.408 0 00-.396-.395zm5.192 0h-2.794a.408.408 0 00-.396.396v1.77c0 .209.187.395.396.395h2.77c.21 0 .396-.186.396-.396v-1.77c.023-.209-.163-.395-.372-.395z" />
  </g>
</svg>