<svg xmlns="http://www.w3.org/2000/svg" width="25" height="25">
  <g fill="#66788A" fill-rule="nonzero">
    <path
      d="M7.22 10.313A5.156 5.156 0 107.222.001a5.156 5.156 0 00-.003 10.312zM4.227 4.39a.518.518 0 01.765-.309 7.17 7.17 0 003.731 1.076c.32 0 .641-.025.958-.073a.516.516 0 01.587.582 3.094 3.094 0 01-6.144-.509c0-.26.035-.517.103-.767zm6.548 8.8a3.27 3.27 0 01.447-.598.516.516 0 00-.128-.805 7.588 7.588 0 00-3.663-.958 7.78 7.78 0 00-7.41 5.525.517.517 0 00.495.663h9.64a.517.517 0 00.47-.731 3.348 3.348 0 01.15-3.096zm5.982 4.375a1.547 1.547 0 103.095-.001 1.547 1.547 0 00-3.095.001z" />
    <path
      d="M24.253 16.144a1.837 1.837 0 00-1.753-3.045l-1.456.336a.466.466 0 01-.55-.32l-.437-1.436a1.83 1.83 0 00-3.506 0l-.437 1.436a.467.467 0 01-.55.32l-1.454-.337a1.84 1.84 0 00-1.754 3.044l1.02 1.1a.479.479 0 010 .644l-1.02 1.098a1.81 1.81 0 00-.24 2.179 1.792 1.792 0 001.995.866l1.455-.336c.24-.055.48.086.55.32l.437 1.436a1.83 1.83 0 003.506 0l.438-1.435a.463.463 0 01.55-.32l1.455.335a1.837 1.837 0 001.753-3.044l-1.018-1.099a.477.477 0 010-.644l1.016-1.098zm-5.949 4.515a3.094 3.094 0 110-6.189 3.094 3.094 0 010 6.189z" />
  </g>
</svg>