<svg xmlns="http://www.w3.org/2000/svg" width="24" height="24">
  <g fill="#66788A" fill-rule="nonzero">
    <path
      d="M10.794 16.196a3.237 3.237 0 01-.706-3.481c.586-1.441 2.165-2.236 3.7-1.863.382.079.491.014.584-.34.365-1.354 1.623-2.288 3.049-2.264.07.01.14-.01.194-.055a.24.24 0 00.085-.18V5.028c0-.384-.155-.753-.432-1.025L13.622.423A1.496 1.496 0 0012.58 0H1.475C.66 0 0 .648 0 1.448v18.344c0 .8.66 1.448 1.475 1.448h8.824a.243.243 0 00.225-.131.235.235 0 00-.028-.255 2.865 2.865 0 01-.607-1.89 3.67 3.67 0 011.04-2.413c.133-.144-.135-.355-.135-.355zM5.9 17.861a.975.975 0 01-.983-.966c0-.533.44-.965.983-.965.543 0 .983.432.983.965 0 .533-.44.966-.983.966zm0-3.38a.974.974 0 01-.983-.965c0-.533.44-.965.983-.965.543 0 .983.432.983.965a.974.974 0 01-.978.966H5.9zm0-3.378a.975.975 0 01-.983-.966c0-.533.44-.965.983-.965.543 0 .983.432.983.965a.975.975 0 01-.978.966H5.9zm1.475-4.731a1.95 1.95 0 01-1.454.647 1.96 1.96 0 01-1.487-.629 1.887 1.887 0 01-.485-1.515l.482-3.02a.49.49 0 01.486-.407h1.966c.243 0 .449.173.486.409l.477 3.003v.015c.07.54-.099 1.085-.463 1.497h-.008zm8.555 10.443a1.475 1.475 0 102.949.001 1.475 1.475 0 00-2.949-.001z" />
    <path
      d="M22.146 17.12a.443.443 0 010-.608l.98-1.036a1.71 1.71 0 00.237-2.047 1.782 1.782 0 00-1.924-.827l-1.398.318a.448.448 0 01-.53-.302l-.42-1.355c-.223-.732-.909-1.233-1.687-1.233s-1.464.501-1.686 1.233l-.42 1.354c-.07.22-.3.353-.53.303l-1.398-.319a1.782 1.782 0 00-1.924.827c-.387.66-.29 1.49.237 2.047l.98 1.036a.444.444 0 010 .609l-.98 1.036a1.712 1.712 0 00-.237 2.048 1.78 1.78 0 001.924.826l1.398-.318c.23-.052.463.08.53.303l.42 1.354c.224.73.91 1.231 1.687 1.231s1.463-.5 1.686-1.23l.42-1.355a.45.45 0 01.53-.303l1.4.318a1.78 1.78 0 001.923-.826c.387-.66.29-1.49-.237-2.048l-.981-1.035zm-4.742 2.616c-1.644 0-2.976-1.307-2.976-2.92 0-1.612 1.332-2.92 2.976-2.92s2.976 1.308 2.976 2.92c0 1.613-1.332 2.92-2.976 2.92z" />
  </g>
</svg>