<svg xmlns="http://www.w3.org/2000/svg" width="20" height="24">
  <path
    d="M19.366 4.873L15.074.581A1.99 1.99 0 0013.67 0H2.097A1.983 1.983 0 00.113 1.983v19.834c0 1.095.888 1.983 1.984 1.983h15.866a1.983 1.983 0 001.984-1.983V6.275c0-.526-.21-1.03-.581-1.402zM9.038 19.337H4.576a.991.991 0 110-1.983h4.462a.992.992 0 110 1.983zm4.463-3.966H4.576a.992.992 0 110-1.984H13.5a.992.992 0 110 1.984zm0-3.967H4.576a.992.992 0 110-1.983H13.5a.992.992 0 110 1.983z"
    fill="#66788A" fill-rule="nonzero" /></svg>