<svg xmlns="http://www.w3.org/2000/svg" width="21" height="19">
  <g fill="#66788A" fill-rule="nonzero">
    <path
      d="M12.12 7.564a.22.22 0 00.239 0l8.414-5.614a.44.44 0 00.185-.454A1.751 1.751 0 0019.25.112H4.812a1.75 1.75 0 00-1.723 1.442.437.437 0 00.198.447l8.834 5.563z" />
    <path
      d="M13.086 8.653a1.529 1.529 0 01-1.662.021L3.734 3.82a.438.438 0 00-.672.37v9.485c0 .966.784 1.75 1.75 1.75H19.25a1.75 1.75 0 001.75-1.75v-9.48a.436.436 0 00-.68-.364l-7.234 4.822z" />
    <path
      d="M17.063 16.738H2.188a.438.438 0 01-.438-.438V4.05a.875.875 0 00-1.75 0v12.688c0 .966.784 1.75 1.75 1.75h15.313a.875.875 0 000-1.75z" />
  </g>
</svg>