<svg xmlns="http://www.w3.org/2000/svg" width="23" height="23">
  <g fill="#66788A" fill-rule="nonzero">
    <path
      d="M16.145 8.764c1 0 1.99.207 2.909.606a.224.224 0 00.32-.204V4.152c0-.765-.62-1.384-1.384-1.384H8.873a.462.462 0 01-.412-.255L7.586.765A1.382 1.382 0 006.35 0H1.384C.62 0 0 .62 0 1.384v13.838c0 .764.62 1.384 1.384 1.384h6.955a.417.417 0 00.425-.461 7.389 7.389 0 017.38-7.38z" />
    <path
      d="M16.145 10.148a5.995 5.995 0 110 11.993 5.996 5.996 0 110-11.993zm2.457 2.993a.5.5 0 00-.494.156l-4.858 4.859a.497.497 0 00.703.703L18.81 14a.5.5 0 00.157-.493.502.502 0 00-.366-.366zm-.4 3.915a.912.912 0 10.561.843.91.91 0 00-.562-.843zm-3.993-3.713a.912.912 0 00-.349 1.753.91.91 0 10.349-1.753z" />
  </g>
</svg>