<svg xmlns="http://www.w3.org/2000/svg" width="42" height="42">
  <defs>
    <filter id="prefix__a" width="101.5%" height="123.3%" x="-.7%" y="-11.7%" filterUnits="objectBoundingBox">
      <feOffset dy="1" in="SourceAlpha" result="shadowOffsetOuter1" />
      <feGaussianBlur in="shadowOffsetOuter1" result="shadowBlurOuter1" stdDeviation="2" />
      <feColorMatrix in="shadowBlurOuter1" result="shadowMatrixOuter1"
        values="0 0 0 0 0 0 0 0 0 0.0823529412 0 0 0 0 0.160784314 0 0 0 0.12 0" />
      <feMerge>
        <feMergeNode in="shadowMatrixOuter1" />
        <feMergeNode in="SourceGraphic" />
      </feMerge>
    </filter>
  </defs>
  <g filter="url(#prefix__a)" transform="translate(-845 -24)" fill="#66788A" fill-rule="nonzero">
    <path
      d="M865.87 32C858.762 32 853 37.762 853 44.87s5.762 12.87 12.87 12.87 12.87-5.762 12.87-12.87c-.008-7.105-5.765-12.862-12.87-12.87zm7.377 19.885a.54.54 0 01-.595.126c-1.11-.46-3.527-1.339-4.29-1.62a.268.268 0 01-.175-.25v-1.866c0-.093.048-.179.127-.227a3.295 3.295 0 001.4-2.804.265.265 0 01.13-.214c.364-.281.56-.73.518-1.187.03-.42-.127-.832-.43-1.126a.268.268 0 01-.086-.29 6.246 6.246 0 00.386-3.265c-.3-1.203-2.02-1.742-3.594-1.742-1.394 0-2.904.423-3.44 1.358a.264.264 0 01-.244.134 1.265 1.265 0 00-1.035.365c-.66.711-.288 2.175-.017 3.15a.268.268 0 01-.092.284 1.41 1.41 0 00-.44 1.133c-.043.458.153.907.518 1.188a.27.27 0 01.129.214 3.295 3.295 0 001.394 2.803.265.265 0 01.127.227v1.865c0 .113-.07.213-.176.251-.743.275-3.13 1.148-4.27 1.626a.537.537 0 01-.597-.124c-3.843-4.025-3.745-10.388.218-14.294 3.963-3.906 10.328-3.909 14.295-.007a10.188 10.188 0 01.232 14.293h.007z" />
  </g>
</svg>